<?xml version="1.0" encoding="UTF-8"?>
<svg version="1.1" xmlns="http://www.w3.org/2000/svg" width="500" height="500">
<path d="M0 0 C6.01708453 3.56521641 10.01085248 8.77459784 12.15625 15.40234375 C13.65310938 21.90120821 12.67295488 27.53744277 9.625 33.4375 C6.21848463 38.3580222 2.91842922 40.88881186 -2.375 43.4375 C-3.365 43.4375 -4.355 43.4375 -5.375 43.4375 C-5.64578369 44.02289551 -5.91656738 44.60829102 -6.19555664 45.21142578 C-7.36671762 47.42186788 -8.63970859 49.14318891 -10.24609375 51.0546875 C-10.81481201 51.73692383 -11.38353027 52.41916016 -11.96948242 53.12207031 C-12.57767822 53.84491211 -13.18587402 54.56775391 -13.8125 55.3125 C-18.31111845 60.71061135 -22.75463894 66.13584771 -27.0625 71.6875 C-30.99552524 76.74537477 -35.06711975 81.65718115 -39.2331543 86.52416992 C-45.55170195 93.94021518 -51.54125243 101.63570322 -57.375 109.4375 C-56.25739414 109.43804477 -55.13978828 109.43858953 -53.98831558 109.43915081 C-26.77032082 109.45355854 0.44751425 109.4966263 27.66541672 109.56959057 C40.82790726 109.60421521 53.99029335 109.6295928 67.15283203 109.63305664 C78.62788099 109.63610002 90.1027438 109.65664109 101.57772088 109.69802457 C107.65133359 109.71932195 113.72468186 109.73197176 119.79833221 109.72365379 C125.52102966 109.71609328 131.24319218 109.73201846 136.9657917 109.76556015 C139.0602848 109.77376921 141.15483133 109.77357211 143.24931908 109.76409721 C156.82144955 109.70880421 167.82420881 110.22289105 178.625 119.4375 C180.5390625 121.6640625 180.5390625 121.6640625 182.25 124.0625 C182.81976563 124.83851562 183.38953125 125.61453125 183.9765625 126.4140625 C188.46856728 134.65295278 189.06143016 142.79677177 189.01268005 152.03111267 C189.02075836 153.88213643 189.02075836 153.88213643 189.02899987 155.7705546 C189.04077325 159.17017115 189.0392358 162.56929339 189.03183305 165.96888959 C189.02708329 169.64519128 189.0396271 173.3214415 189.04985046 176.99772644 C189.06700817 184.18970061 189.06788483 191.3815873 189.06263756 198.57357662 C189.05858919 204.421365 189.06004732 210.2691276 189.06538582 216.11691475 C189.06613424 216.95054299 189.06688266 217.78417124 189.06765376 218.64306094 C189.06918531 220.33679656 189.07072365 222.03053218 189.07226873 223.72426779 C189.08598266 239.59184614 189.08056374 255.45937513 189.06908352 271.32695235 C189.05915094 285.82981983 189.07209419 300.33255974 189.09601771 314.83540755 C189.12042446 329.74404412 189.13001279 344.65262131 189.12336498 359.56127745 C189.11987644 367.92454048 189.12208078 376.28770541 189.13961601 384.65095329 C189.15435766 391.76982359 189.1549478 398.88852668 189.1375451 406.00739377 C189.12904905 409.63618322 189.12685101 413.26467421 189.14219666 416.89344788 C189.15865704 420.83475153 189.14385936 424.77559771 189.12620544 428.71690369 C189.13581045 429.85310762 189.14541546 430.98931155 189.15531152 432.15994591 C189.05004916 443.6116894 185.75600172 453.19401407 177.625 461.4375 C171.001627 467.06367372 163.37065397 470.4375 154.625 470.4375 C154.46644531 471.05496094 154.30789063 471.67242187 154.14453125 472.30859375 C151.35939129 482.41819018 147.48558362 490.37941158 138.625 496.4375 C134.90927279 498.19000865 131.95509905 498.69665604 127.86010742 498.72802734 C126.725103 498.74078705 125.59009857 498.75354675 124.42070007 498.76669312 C122.59403557 498.77003159 122.59403557 498.77003159 120.73046875 498.7734375 C118.83848503 498.7834227 118.83848503 498.7834227 116.90827942 498.79360962 C114.24103674 498.80372948 111.57420175 498.80929288 108.90698242 498.80810547 C105.50756678 498.80790261 102.10899026 498.83517879 98.70977306 498.86964989 C95.44587072 498.89738616 92.18197284 498.89607135 88.91796875 498.8984375 C87.10041328 498.91999405 87.10041328 498.91999405 85.24613953 498.94198608 C77.20556861 498.8987555 71.84415166 497.90075246 65.48828125 492.68359375 C59.81376577 486.06570794 56.33589108 478.99195539 54.625 470.4375 C-19.625 470.7675 -93.875 471.0975 -170.375 471.4375 C-172.025 475.7275 -173.675 480.0175 -175.375 484.4375 C-179.67215828 490.97276155 -183.78154407 495.87097571 -191.375 498.4375 C-194.131073 498.69819641 -194.131073 498.69819641 -197.15576172 498.7121582 C-198.29399384 498.72169022 -199.43222595 498.73122223 -200.60494995 498.74104309 C-202.43632004 498.73967598 -202.43632004 498.73967598 -204.3046875 498.73828125 C-206.20022873 498.74470894 -206.20022873 498.74470894 -208.13406372 498.75126648 C-210.80550059 498.75700616 -213.47655066 498.75844987 -216.14794922 498.75317383 C-219.55629716 498.74738664 -222.96410035 498.76429918 -226.37235832 498.7875185 C-229.64146351 498.80587289 -232.91054011 498.80206892 -236.1796875 498.80078125 C-238.00498489 498.81459587 -238.00498489 498.81459587 -239.86715698 498.82868958 C-247.5991475 498.78661058 -252.95958717 498.36499671 -259 493.1875 C-264.4164141 486.91586262 -270.375 479.15929004 -270.375 470.4375 C-271.05304688 470.36273438 -271.73109375 470.28796875 -272.4296875 470.2109375 C-282.60608047 468.77327534 -290.37958937 464.68361875 -296.90625 456.6484375 C-303.13586306 447.27088167 -303.5238055 437.42814089 -303.51544189 426.52145386 C-303.51841302 425.31197905 -303.52138414 424.10250424 -303.5244453 422.85637867 C-303.53161045 419.50681896 -303.53430343 416.15731056 -303.53504276 412.80774689 C-303.5368978 409.19204131 -303.54444743 405.57634676 -303.55117798 401.96064758 C-303.56474388 394.05755817 -303.57078337 386.15447384 -303.57518864 378.25137472 C-303.57795416 373.31339632 -303.58219209 368.37541986 -303.58669281 363.43744278 C-303.59888348 349.75645763 -303.60918301 336.07547403 -303.6125679 322.39448357 C-303.61278747 321.5193325 -303.61300703 320.64418142 -303.61323325 319.74251062 C-303.61345153 318.86530518 -303.61366981 317.98809974 -303.6138947 317.08431232 C-303.61433816 315.30685925 -303.61478473 313.52940619 -303.61523438 311.75195312 C-303.6154558 310.87028127 -303.61567723 309.98860942 -303.61590537 309.08022024 C-303.61985158 294.80089466 -303.63730107 280.52162017 -303.6605939 266.24231432 C-303.68433395 251.56998339 -303.69677097 236.89767806 -303.69793582 222.22532761 C-303.69885112 213.99220949 -303.70456674 205.75915793 -303.72275543 197.5260582 C-303.73819231 190.51401746 -303.74325581 183.50206386 -303.73501733 176.49000935 C-303.73112341 172.91584505 -303.73197841 169.34185603 -303.74607468 165.76771355 C-303.7612528 161.88355043 -303.75290982 157.99963099 -303.74249268 154.115448 C-303.75054908 152.99888317 -303.75860548 151.88231834 -303.76690602 150.73191822 C-303.68808561 138.11603723 -301.30491686 128.6952839 -292.55859375 119.53515625 C-283.44990733 110.83130034 -273.83428647 109.84294666 -261.65380859 109.89160156 C-260.19421292 109.8828508 -258.73462681 109.87235981 -257.27505493 109.86027527 C-253.34181086 109.83257822 -249.40888233 109.82900694 -245.47555494 109.82999516 C-241.35420757 109.82685193 -237.2329994 109.80120458 -233.11172485 109.77801514 C-225.32054685 109.73755906 -217.52945233 109.71713896 -209.73818552 109.70404124 C-200.86259446 109.68813586 -191.98714473 109.64970544 -183.11163592 109.60944796 C-164.86613539 109.52719137 -146.62064841 109.47301045 -128.375 109.4375 C-130.55788692 106.4607611 -132.74356463 103.48608176 -134.9296875 100.51171875 C-135.53772217 99.68248901 -136.14575684 98.85325928 -136.7722168 97.99890137 C-140.9289518 92.34700722 -145.17398677 86.77325398 -149.5 81.25 C-150.10740524 80.47417068 -150.71481049 79.69834137 -151.34062195 78.89900208 C-152.15234612 77.86231636 -152.15234612 77.86231636 -152.98046875 76.8046875 C-156.82493677 71.88016458 -160.57181832 66.88497505 -164.30224609 61.8737793 C-167.54083306 57.52742951 -170.85147516 53.2498473 -174.265625 49.0390625 C-175.375 47.4375 -175.375 47.4375 -175.375 45.4375 C-176.53 45.375625 -177.685 45.31375 -178.875 45.25 C-184.68634862 44.48886761 -189.30001994 42.07231379 -192.953125 37.43359375 C-197.55356934 30.25531422 -198.36930247 23.64369564 -197.01953125 15.21875 C-195.17001228 8.96265898 -190.53007286 5.15912428 -185.375 1.4375 C-180.03722998 -1.23138501 -174.01421359 -1.41098696 -168.23046875 -0.0625 C-161.57049003 2.17871655 -156.46573631 6.09658779 -153.1171875 12.40625 C-151.9555155 15.58556284 -151.73610211 18.74321886 -151.55078125 22.10546875 C-151.23386848 26.30984478 -150.23144467 28.96391456 -147.70703125 32.3515625 C-146.8728064 33.47872681 -146.8728064 33.47872681 -146.02172852 34.62866211 C-145.41643311 35.43182861 -144.8111377 36.23499512 -144.1875 37.0625 C-143.559646 37.90498291 -142.93179199 38.74746582 -142.28491211 39.61547852 C-137.50428889 46.00415666 -132.62130509 52.3108822 -127.70068359 58.59204102 C-122.6912199 64.99565449 -117.80823793 71.48885717 -112.94335938 78.00268555 C-106.81927418 86.19791575 -100.60708172 94.32423341 -94.375 102.4375 C-90.3689572 101.1021524 -88.81829102 98.44407206 -86.375 95.1875 C-82.59038697 90.25132408 -78.73352062 85.41211188 -74.6875 80.6875 C-70.90321415 76.25623185 -67.20342824 71.77249915 -63.58203125 67.20703125 C-60.80626576 63.72381403 -57.99797914 60.26772881 -55.1875 56.8125 C-54.3663269 55.80219727 -54.3663269 55.80219727 -53.52856445 54.77148438 C-50.59542986 51.16382658 -47.65871971 47.559121 -44.71875 43.95703125 C-43.83159302 42.86865967 -43.83159302 42.86865967 -42.92651367 41.75830078 C-41.78977688 40.3638313 -40.65196353 38.97023854 -39.51293945 37.57763672 C-38.99948975 36.94744629 -38.48604004 36.31725586 -37.95703125 35.66796875 C-37.50561768 35.11520264 -37.0542041 34.56243652 -36.58911133 33.99291992 C-33.38320701 29.88577807 -33.2446583 27.88458861 -33.5 22.75 C-33.60612508 14.8314366 -32.04829219 10.70485712 -27.125 4.6875 C-19.21177647 -1.78695562 -9.80343607 -4.33830217 0 0 Z M-241.73828125 189.20703125 C-253.33613887 204.47426755 -255.51840521 219.82163132 -255.53613281 238.4519043 C-255.54109772 239.71674149 -255.54606262 240.98157867 -255.55117798 242.28474426 C-255.56418319 245.72719777 -255.57072329 249.1696319 -255.57518864 252.61210608 C-255.57813833 254.77147978 -255.58224648 256.9308484 -255.58669281 259.0902195 C-255.60033563 265.87173677 -255.61001829 272.65324216 -255.6138947 279.43477219 C-255.61836955 287.21633812 -255.63590436 294.99772789 -255.6648953 302.77924031 C-255.68662906 308.82633901 -255.69660515 314.87338857 -255.69793582 320.92052585 C-255.6989754 324.51753322 -255.70469988 328.11437431 -255.72275543 331.71133995 C-255.84366193 357.2373594 -254.64953016 378.7904358 -235.94775391 397.93994141 C-216.0895873 416.84866447 -191.81561126 419.59231984 -165.60107422 419.58276367 C-163.94380112 419.58576237 -162.28652871 419.58916651 -160.6292572 419.59294128 C-156.15988971 419.6017143 -151.69054141 419.60411658 -147.22116613 419.60475707 C-144.41885654 419.60547151 -141.61655172 419.60761326 -138.81424332 419.61025429 C-129.00929712 419.61948631 -119.20436446 419.62359196 -109.39941406 419.62280273 C-100.30635698 419.62220287 -91.21335939 419.63274229 -82.12031734 419.6485464 C-74.27527017 419.66168822 -66.43024229 419.66698385 -58.58518422 419.66634732 C-53.91672169 419.66609424 -49.2483121 419.66883945 -44.57986069 419.67952538 C-40.18189584 419.68931871 -35.78403331 419.68920996 -31.38606453 419.68200874 C-29.78750646 419.68097662 -28.18894163 419.68324224 -26.59039497 419.6893692 C-18.26327293 419.71917504 -10.05497905 419.44517915 -1.77029419 418.55903625 C-1.04537557 418.48307604 -0.32045694 418.40711583 0.42642891 418.32885379 C20.85944549 415.9186755 36.91190206 404.86512402 50 389.5625 C61.43286277 374.60450455 62.77769528 358.08452115 62.77026367 339.95214844 C62.77362228 338.75544022 62.7769809 337.55873199 62.78044128 336.32575989 C62.78825564 333.07549769 62.79161543 329.82527405 62.79225707 326.57500362 C62.7929729 324.53505881 62.79511718 322.49512049 62.79775429 320.45517731 C62.80697705 313.31207358 62.81109305 306.16898839 62.81030273 299.02587891 C62.80970281 292.40998407 62.82024583 285.79417098 62.8360464 279.1782968 C62.84920198 273.46238509 62.85448329 267.74649983 62.85384732 262.03057313 C62.85359468 258.63259381 62.85631479 255.2346873 62.86702538 251.83672333 C63.23858682 218.59917254 63.23858682 218.59917254 48.625 189.4375 C48.02945312 188.67824219 47.43390625 187.91898438 46.8203125 187.13671875 C34.18405655 171.95748184 16.96201747 163.99264924 -2.375 161.4375 C-8.60311189 160.93565588 -14.85422421 161.02567314 -21.09765625 161.04931641 C-22.92772737 161.04524087 -24.75779602 161.03989354 -26.58786011 161.03338623 C-31.51350427 161.01982345 -36.43895787 161.02496521 -41.36460495 161.03452349 C-46.54654156 161.04217779 -51.72846306 161.03505859 -56.91040039 161.03036499 C-65.60859065 161.02492412 -74.30670422 161.03205507 -83.00488281 161.04638672 C-93.02684076 161.06270997 -103.04861553 161.05742028 -113.07056904 161.0409075 C-121.71223919 161.0272449 -130.35385456 161.02539622 -138.99553204 161.03322351 C-144.14061671 161.03787388 -149.2856156 161.03859814 -154.43069458 161.02861404 C-159.27032061 161.01987679 -164.10971303 161.02608825 -168.94931412 161.04329681 C-170.71361022 161.04722587 -172.47792637 161.04619001 -174.2422142 161.03950882 C-200.90546809 160.94793308 -223.9783293 168.39412888 -241.73828125 189.20703125 Z " fill="#020202" transform="translate(307.375,1.5625)"/>
<path d="M0 0 C41.83333333 0 41.83333333 0 50 6 C55.27359101 12.80015682 55.59911666 18.63455626 55 27 C53.26769419 32.29315663 50.42126997 34.84195002 46 38 C43.80859375 38.63671875 43.80859375 38.63671875 42 39 C42.66334351 39.59651367 42.66334351 39.59651367 43.34008789 40.20507812 C49.70834023 46.59468611 51.86879165 54.11551539 54.4375 62.5 C54.88553071 63.90944009 55.33538747 65.31830108 55.78710938 66.7265625 C56.88275128 70.14416112 57.93997301 73.57037545 59 77 C53.39 77 47.78 77 42 77 C41.39671875 75.16953125 40.7934375 73.3390625 40.171875 71.453125 C39.36520489 69.05187444 38.55787898 66.65084412 37.75 64.25 C37.35425781 63.0434375 36.95851562 61.836875 36.55078125 60.59375 C35.96103516 58.85351562 35.96103516 58.85351562 35.359375 57.078125 C35.00327148 56.00981445 34.64716797 54.94150391 34.28027344 53.84082031 C32.97984768 50.50767022 32.97984768 50.50767022 29 47 C24.71 46.67 20.42 46.34 16 46 C16 56.23 16 66.46 16 77 C10.72 77 5.44 77 0 77 C0 51.59 0 26.18 0 0 Z M16 13 C16 19.6 16 26.2 16 33 C20.0528125 33.0928125 20.0528125 33.0928125 24.1875 33.1875 C25.02949951 33.21481201 25.87149902 33.24212402 26.73901367 33.27026367 C31.28625253 33.32053031 34.3818028 33.07061563 38 30 C39.88015352 26.4756338 40.25340912 23.03667368 39.3125 19.1875 C37.68944053 16.48240088 36.43194631 14.5084447 33.3828125 13.42578125 C30.00737286 12.82262892 26.66479354 12.89586516 23.25 12.9375 C20.8575 12.958125 18.465 12.97875 16 13 Z " fill="#5B5B5B" transform="translate(146,254)"/>
<path d="M0 0 C5.28 0 10.56 0 16 0 C17.78783772 4.17162136 19.42518981 8.02958462 20.80932617 12.29272461 C21.12943161 13.27321274 21.44953705 14.25370087 21.77934265 15.26390076 C22.11383926 16.29958694 22.44833588 17.33527313 22.79296875 18.40234375 C23.14386063 19.48004532 23.4947525 20.55774689 23.85627747 21.66810608 C24.96973469 25.09025491 26.07867981 28.51384625 27.1875 31.9375 C27.94436346 34.26637291 28.70152173 36.59515003 29.45898438 38.92382812 C31.30940446 44.61478077 33.15612806 50.3069226 35 56 C36.87763219 50.39671189 38.75227834 44.79243117 40.625 39.1875 C41.0371727 37.9543959 41.0371727 37.9543959 41.45767212 36.69638062 C44.86368959 26.50010148 48.2508866 16.30163334 51.38720703 6.01831055 C52.90037604 1.09962396 52.90037604 1.09962396 54 0 C56.53049402 -0.07313567 59.03304837 -0.09247527 61.5625 -0.0625 C62.62887695 -0.05573242 62.62887695 -0.05573242 63.71679688 -0.04882812 C65.47790013 -0.03700864 67.23896036 -0.01907263 69 0 C70.31014451 3.93043354 69.12521094 6.38394002 67.81860352 10.13354492 C67.57491028 10.85574722 67.33121704 11.57794952 67.08013916 12.32203674 C66.27159411 14.71117414 65.45032804 17.09573109 64.62890625 19.48046875 C64.06618408 21.13501197 63.50425873 22.78982639 62.94309998 24.44490051 C61.46323258 28.80254039 59.97254791 33.15640477 58.47961426 37.50958252 C56.95840065 41.9514331 55.44739971 46.39675344 53.93554688 50.84179688 C50.96703862 59.56464054 47.98616177 68.283184 45 77 C38.4 77 31.8 77 25 77 C24.11699219 74.4115625 23.23398437 71.823125 22.32421875 69.15625 C21.74238619 67.45140375 21.16052199 65.74656831 20.57861328 64.04174805 C19.31175308 60.32998074 18.04595364 56.61785383 16.78076172 52.90551758 C13.75271435 44.02576724 10.71294984 35.15072495 7.62109375 26.29296875 C7.10772815 24.81774335 6.59446023 23.34248395 6.08129883 21.8671875 C5.35881538 19.79018623 4.63434871 17.71400718 3.90292358 15.64013672 C3.23459824 13.74504989 2.57412616 11.84719895 1.9140625 9.94921875 C1.5423291 8.89049561 1.1705957 7.83177246 0.78759766 6.7409668 C0 4 0 4 0 0 Z " fill="#5C5C5C" transform="translate(272,254)"/>
<path d="M0 0 C1.04590805 0.00222061 2.0918161 0.00444122 3.16941833 0.00672913 C4.35056717 0.00680466 5.531716 0.00688019 6.74865723 0.00695801 C8.03404892 0.01211929 9.31944061 0.01728058 10.64378357 0.02259827 C12.60601112 0.02472069 12.60601112 0.02472069 14.60787964 0.02688599 C18.09150591 0.03071042 21.57509071 0.04054005 25.05870056 0.05158997 C28.6111444 0.06180569 32.16359491 0.06638395 35.71604919 0.07142639 C42.69067736 0.0821624 49.66527108 0.09975859 56.63987732 0.12025452 C56.63987732 4.74025452 56.63987732 9.36025452 56.63987732 14.12025452 C49.37987732 14.12025452 42.11987732 14.12025452 34.63987732 14.12025452 C34.63987732 34.91025452 34.63987732 55.70025452 34.63987732 77.12025452 C29.35987732 77.12025452 24.07987732 77.12025452 18.63987732 77.12025452 C18.63987732 56.33025452 18.63987732 35.54025452 18.63987732 14.12025452 C11.37987732 14.12025452 4.11987732 14.12025452 -3.36012268 14.12025452 C-3.45777893 4.06166077 -3.45777893 4.06166077 -3.36012268 1.12025452 C-2.36012268 0.12025452 -2.36012268 0.12025452 0 0 Z " fill="#5D5D5D" transform="translate(212.36012268066406,253.87974548339844)"/>
<path d="M0 0 C2.47923801 -0.02685095 4.9581884 -0.04676547 7.4375 -0.0625 C8.14455078 -0.07087891 8.85160156 -0.07925781 9.58007812 -0.08789062 C11.38693559 -0.09653588 13.19387603 -0.05220011 15 0 C16.67467014 1.67467014 16.1360181 3.72086572 16.14526367 6.01953125 C16.15164352 7.09154785 16.15802338 8.16356445 16.16459656 9.26806641 C16.16570938 10.43772949 16.1668222 11.60739258 16.16796875 12.8125 C16.17296135 14.60953369 16.17296135 14.60953369 16.17805481 16.44287109 C16.18313197 18.98844009 16.18546289 21.53401579 16.18530273 24.07958984 C16.18747507 27.95551766 16.20558333 31.8311544 16.22460938 35.70703125 C16.22754604 38.17968653 16.22952901 40.65234316 16.23046875 43.125 C16.23765427 44.27846924 16.24483978 45.43193848 16.25224304 46.62036133 C16.22579558 56.05245369 15.74293442 65.75174028 9 73 C0.92058972 78.78330789 -7.43916058 79.60840061 -17.0625 78.4375 C-24.32433028 77.04494825 -30.34423132 73.82747172 -34.5625 67.625 C-35.036875 66.75875 -35.51125 65.8925 -36 65 C-33.71461395 60.91036181 -31.04293074 57.53637896 -28 54 C-26.25 54.125 -26.25 54.125 -24 55 C-23.4225 55.94875 -22.845 56.8975 -22.25 57.875 C-19.73727713 61.36489287 -18.16919663 62.40451095 -14.16015625 63.6484375 C-10.53075157 64.23911819 -7.07000609 64.13743218 -4 62 C-0.37786276 55.61475033 -0.5277887 49.50001345 -0.48828125 42.28515625 C-0.47033005 41.07427841 -0.45237885 39.86340057 -0.43388367 38.61582947 C-0.37988872 34.7647546 -0.34591851 30.91380295 -0.3125 27.0625 C-0.27931751 24.44464436 -0.24482699 21.82680495 -0.20898438 19.20898438 C-0.12416819 12.80610008 -0.05577241 6.40319962 0 0 Z " fill="#5C5C5C" transform="translate(112,254)"/>
<path d="M0 0 C1.70703125 1.46484375 1.70703125 1.46484375 3.70703125 4.46484375 C2.71703125 5.78484375 1.72703125 7.10484375 0.70703125 8.46484375 C1.27550781 8.39523438 1.84398437 8.325625 2.4296875 8.25390625 C7.02419581 7.93175375 9.94502833 8.09924606 13.58203125 11.08984375 C17.43781444 14.90984241 19.43904559 18.39752578 20.14453125 23.83984375 C19.44182108 29.66229943 17.39753611 33.85680255 13.14453125 37.90234375 C8.26258881 41.03179403 3.34347824 41.0979548 -2.29296875 40.46484375 C-6.68066833 38.27099396 -9.74126708 35.65692506 -12.29296875 31.46484375 C-12.86780946 28.9026966 -13.28855717 26.37612897 -13.60546875 23.76953125 C-14.49140396 20.79963481 -15.66330266 20.02137404 -18.29296875 18.46484375 C-23.45776286 16.74324571 -27.71091827 16.74844353 -32.60546875 18.96484375 C-33.49234375 19.45984375 -34.37921875 19.95484375 -35.29296875 20.46484375 C-38.29296875 20.46484375 -38.29296875 20.46484375 -40.48046875 18.46484375 C-41.07859375 17.80484375 -41.67671875 17.14484375 -42.29296875 16.46484375 C-40.65169004 12.63519343 -38.74554336 10.99635341 -34.8984375 9.23046875 C-26.6865862 6.81739101 -18.29557819 7.6489319 -10.76953125 11.58984375 C-10.03863281 12.02296875 -10.03863281 12.02296875 -9.29296875 12.46484375 C-7.64296875 11.14484375 -5.99296875 9.82484375 -4.29296875 8.46484375 C-12.99011771 2.54626446 -20.71967428 0.38512999 -31.29296875 1.46484375 C-37.37942487 2.98059791 -42.71559108 5.04530669 -47.29296875 9.46484375 C-50.66017262 8.07151801 -52.27892115 6.48591515 -54.29296875 3.46484375 C-38.9288524 -11.55008814 -17.31226234 -12.10894787 0 0 Z " fill="#45A634" transform="translate(453.29296875,180.53515625)"/>
<path d="M0 0 C0.77601563 0.72058594 1.55203125 1.44117188 2.3515625 2.18359375 C2.3515625 6.45186248 1.97542737 7.12241807 -0.6484375 10.18359375 C-3.87189884 8.6941323 -6.59936014 6.84157953 -9.4609375 4.74609375 C-21.25268288 -3.59483203 -33.58288545 -3.86220398 -47.6484375 -2.81640625 C-51.42683606 -2.02167098 -54.34887007 -0.78890817 -57.6484375 1.18359375 C-58.52886719 1.67730469 -59.40929687 2.17101562 -60.31640625 2.6796875 C-64.27567665 4.97069389 -68.02208567 7.39345547 -71.6484375 10.18359375 C-73.2984375 8.53359375 -74.9484375 6.88359375 -76.6484375 5.18359375 C-75.34888359 1.28493203 -72.97383602 -0.04189622 -69.7109375 -2.25390625 C-69.12699219 -2.65351563 -68.54304688 -3.053125 -67.94140625 -3.46484375 C-46.41645594 -17.79914472 -20.38174494 -14.0337313 0 0 Z " fill="#F4F4F4" transform="translate(464.6484375,168.81640625)"/>
<path d="M0 0 C0.63164062 0.3609375 1.26328125 0.721875 1.9140625 1.09375 C1.31544508 3.44546131 0.64481898 5.7796878 -0.0859375 8.09375 C-0.7459375 8.42375 -1.4059375 8.75375 -2.0859375 9.09375 C-2.74366178 12.12309491 -2.74366178 12.12309491 -3.0859375 15.09375 C-2.0959375 14.76375 -1.1059375 14.43375 -0.0859375 14.09375 C-0.0859375 14.75375 -0.0859375 15.41375 -0.0859375 16.09375 C0.5740625 16.09375 1.2340625 16.09375 1.9140625 16.09375 C1.7284375 14.959375 1.5428125 13.825 1.3515625 12.65625 C1.2071875 11.480625 1.0628125 10.305 0.9140625 9.09375 C1.9140625 8.09375 1.9140625 8.09375 4.2265625 7.78125 C7.68114116 8.18294519 8.71946599 9.49274673 10.9140625 12.09375 C11.37296875 11.57683594 11.831875 11.05992187 12.3046875 10.52734375 C12.91828125 9.86863281 13.531875 9.20992187 14.1640625 8.53125 C14.76734375 7.86996094 15.370625 7.20867187 15.9921875 6.52734375 C17.9140625 5.09375 17.9140625 5.09375 20.1484375 5.37890625 C20.73109375 5.61480469 21.31375 5.85070312 21.9140625 6.09375 C21.34061313 8.96099686 21.052611 9.9552015 18.9140625 12.09375 C18.6046875 12.898125 18.2953125 13.7025 17.9765625 14.53125 C16.86419926 17.21400839 16.29203452 18.4537693 13.9140625 20.09375 C9.66294708 21.21668615 7.56933232 21.36777192 3.4765625 19.65625 C2.208125 18.8828125 2.208125 18.8828125 0.9140625 18.09375 C0.95362148 20.01684422 0.95362148 20.01684422 1.9140625 22.09375 C4.89759144 23.87754415 4.89759144 23.87754415 7.9140625 25.09375 C7.9140625 25.75375 7.9140625 26.41375 7.9140625 27.09375 C11.8740625 26.43375 15.8340625 25.77375 19.9140625 25.09375 C20.4090625 23.60875 20.4090625 23.60875 20.9140625 22.09375 C21.9040625 22.09375 22.8940625 22.09375 23.9140625 22.09375 C25.83033087 17.11145224 26.468774 12.36690333 26.9140625 7.09375 C27.5740625 7.42375 28.2340625 7.75375 28.9140625 8.09375 C29.41043321 14.05019848 28.27056651 18.11313114 24.9140625 23.09375 C20.03289735 27.73680954 15.94705644 28.45103013 9.41796875 28.375 C4.64582165 27.838971 2.02104257 25.13923118 -1.3359375 21.96875 C-3.46394062 18.47274488 -3.90889155 15.42495293 -4.3984375 11.3984375 C-5.28437271 8.42854106 -6.45627141 7.65028029 -9.0859375 6.09375 C-14.25073161 4.37215196 -18.50388702 4.37734978 -23.3984375 6.59375 C-24.2853125 7.08875 -25.1721875 7.58375 -26.0859375 8.09375 C-29.0859375 8.09375 -29.0859375 8.09375 -31.2734375 6.09375 C-31.8715625 5.43375 -32.4696875 4.77375 -33.0859375 4.09375 C-31.44390331 0.26233688 -29.53869936 -1.38058171 -25.68359375 -3.13671875 C-16.58262476 -5.83279528 -8.25629653 -4.28280512 0 0 Z " fill="#4EA041" transform="translate(444.0859375,192.90625)"/>
<path d="M0 0 C1.70703125 1.46484375 1.70703125 1.46484375 3.70703125 4.46484375 C2.01953125 6.52734375 2.01953125 6.52734375 -0.29296875 8.46484375 C-4.09147549 8.10156374 -7.01456856 6.74114926 -10.35546875 4.96484375 C-18.0128466 0.90607953 -25.8451845 0.12031388 -34.34765625 2.21875 C-39.31308539 3.93444706 -43.45615885 5.76033764 -47.29296875 9.46484375 C-50.66017262 8.07151801 -52.27892115 6.48591515 -54.29296875 3.46484375 C-38.9288524 -11.55008814 -17.31226234 -12.10894787 0 0 Z " fill="#F5F5F5" transform="translate(453.29296875,180.53515625)"/>
<path d="M0 0 C1.546875 0.99 1.546875 0.99 3.125 2 C3.125 5.20395416 2.38164978 7.09399739 1.125 10 C-1.11982516 9.50114996 -3.0371284 8.92343936 -5.125 7.9375 C-10.25372129 6.18907229 -14.34570238 6.30748787 -19.1875 8.5 C-20.074375 8.995 -20.96125 9.49 -21.875 10 C-24.875 10 -24.875 10 -27.0625 8 C-27.660625 7.34 -28.25875 6.68 -28.875 6 C-27.23428557 2.17166632 -25.3288303 0.5335132 -21.484375 -1.234375 C-14.51116367 -3.28040707 -6.56058703 -3.26861987 0 0 Z " fill="#F6F8F6" transform="translate(439.875,191)"/>
<path d="M0 0 C1.9375 1.6875 1.9375 1.6875 3 4 C2.875 7.125 2.875 7.125 2 10 C-1.46923881 12.31282587 -2.92205575 12.42478586 -7 12 C-8.875 10.9375 -8.875 10.9375 -10 9 C-10.4375 5.5 -10.4375 5.5 -10 2 C-7.0239502 -1.66283052 -4.29996319 -1.37232868 0 0 Z " fill="#F6F6F6" transform="translate(432,208)"/>
<path d="M0 0 C0.87398438 0.35384766 0.87398438 0.35384766 1.765625 0.71484375 C1.22137515 4.72753333 -0.75509701 6.69901221 -3.546875 9.52734375 C-4.32675781 10.33816406 -5.10664063 11.14898437 -5.91015625 11.984375 C-8.234375 13.71484375 -8.234375 13.71484375 -10.35546875 13.62109375 C-13.32249403 12.19001295 -15.13632449 10.22084853 -17.234375 7.71484375 C-17.234375 6.39484375 -17.234375 5.07484375 -17.234375 3.71484375 C-13.85974785 4.26208058 -12.152025 4.76974375 -9.234375 6.71484375 C-8.54601562 5.93947266 -8.54601562 5.93947266 -7.84375 5.1484375 C-7.23015625 4.48972656 -6.6165625 3.83101562 -5.984375 3.15234375 C-5.38109375 2.49105469 -4.7778125 1.82976562 -4.15625 1.1484375 C-2.234375 -0.28515625 -2.234375 -0.28515625 0 0 Z " fill="#DBF2D7" transform="translate(464.234375,198.28515625)"/>
<path d="M0 0 C0.66 0.33 1.32 0.66 2 1 C2.49637071 6.95644848 1.35650401 11.01938114 -2 16 C-6.88017527 20.64211794 -10.96186538 21.35184955 -17.48828125 21.28515625 C-21.17627371 20.86645726 -23.27384723 19.45353749 -26 17 C-27.375 14.75 -27.375 14.75 -28 13 C-27.34 13 -26.68 13 -26 13 C-24 15 -24 15 -22 17 C-21.01 17.33 -20.02 17.66 -19 18 C-19 18.66 -19 19.32 -19 20 C-15.04 19.34 -11.08 18.68 -7 18 C-6.67 17.01 -6.34 16.02 -6 15 C-5.01 15 -4.02 15 -3 15 C-1.08373163 10.01770224 -0.4452885 5.27315333 0 0 Z " fill="#4B903F" transform="translate(471,200)"/>
<path d="M0 0 C4.875 1.75 4.875 1.75 6 4 C5.01 4.33 4.02 4.66 3 5 C3.99 6.485 3.99 6.485 5 8 C5.125 10.6875 5.125 10.6875 5 13 C4.01 13 3.02 13 2 13 C2.33 11.68 2.66 10.36 3 9 C1.35 9.33 -0.3 9.66 -2 10 C-1.125 6.125 -1.125 6.125 0 5 C-0.66 4.34 -1.32 3.68 -2 3 C-1.34 2.01 -0.68 1.02 0 0 Z " fill="#51A043" transform="translate(462,190)"/>
<path d="M0 0 C0.99 0.33 1.98 0.66 3 1 C1.515 2.485 1.515 2.485 0 4 C0.99 3.34 1.98 2.68 3 2 C5.1875 2.375 5.1875 2.375 7 3 C5.35 4.65 3.7 6.3 2 8 C2 7.34 2 6.68 2 6 C0.02 6.66 -1.96 7.32 -4 8 C-2.68 5.36 -1.36 2.72 0 0 Z " fill="#48A539" transform="translate(463,204)"/>
<path d="M0 0 C0.33 0.66 0.66 1.32 1 2 C0.67 2.66 0.34 3.32 0 4 C0.99 4.33 1.98 4.66 3 5 C1.25 7.0625 1.25 7.0625 -1 9 C-3.1875 8.875 -3.1875 8.875 -5 8 C-5.33 7.34 -5.66 6.68 -6 6 C-4.68 6 -3.36 6 -2 6 C-1.67 5.34 -1.34 4.68 -1 4 C-2.32 3.67 -3.64 3.34 -5 3 C-3.35 2.01 -1.7 1.02 0 0 Z " fill="#D3EFCE" transform="translate(457,203)"/>
<path d="M0 0 C0 0.66 0 1.32 0 2 C-0.92232422 1.96519531 -0.92232422 1.96519531 -1.86328125 1.9296875 C-2.67152344 1.91164062 -3.47976563 1.89359375 -4.3125 1.875 C-5.51326172 1.84019531 -5.51326172 1.84019531 -6.73828125 1.8046875 C-9.28388576 1.84182678 -9.28388576 1.84182678 -12 4 C-12.99 3.67 -13.98 3.34 -15 3 C-9.63687862 -1.25351006 -6.50877322 -0.9603108 0 0 Z " fill="#539A47" transform="translate(461,189)"/>
<path d="M0 0 C1.2065625 0.0309375 1.2065625 0.0309375 2.4375 0.0625 C2.1075 0.7225 1.7775 1.3825 1.4375 2.0625 C0.4475 1.7325 -0.5425 1.4025 -1.5625 1.0625 C-0.16490095 4.60768884 -0.16490095 4.60768884 1.4375 8.0625 C0.1175 7.7325 -1.2025 7.4025 -2.5625 7.0625 C-2.94383299 5.0710944 -3.27575582 3.06970923 -3.5625 1.0625 C-2.5625 0.0625 -2.5625 0.0625 0 0 Z " fill="#5BA44E" transform="translate(448.5625,200.9375)"/>
<path d="M0 0 C1.98 1.65 3.96 3.3 6 5 C5.67 5.66 5.34 6.32 5 7 C2.13275314 6.42655063 1.1385485 6.1385485 -1 4 C-0.625 1.875 -0.625 1.875 0 0 Z " fill="#737373" transform="translate(187,293)"/>
<path d="M0 0 C0.99 0.99 1.98 1.98 3 3 C0.69 4.32 -1.62 5.64 -4 7 C-3.43628586 3.73045798 -2.50037734 2.17424117 0 0 Z " fill="#051204" transform="translate(447,187)"/>
<path d="M0 0 C2.31 0.33 4.62 0.66 7 1 C6.67 1.99 6.34 2.98 6 4 C4.02 3.34 2.04 2.68 0 2 C0 1.34 0 0.68 0 0 Z " fill="#EAF3E7" transform="translate(449,206)"/>
</svg>
