<?xml version="1.0" encoding="UTF-8"?>
<svg version="1.1" xmlns="http://www.w3.org/2000/svg" width="500" height="500">
<path d="M0 0 C3.96872558 2.13700608 6.37317781 3.78259841 8 8 C8.32855735 12.70932204 7.71413653 16.10732934 4.75 19.8125 C3.02858021 21.18181119 1.29581382 22.53711016 -0.453125 23.87109375 C-2.84747759 25.87250811 -4.60419004 27.78544705 -6.5 30.25 C-10.81571065 35.78338717 -15.24338878 41.21767449 -19.6953125 46.64160156 C-20.50935547 47.63885254 -20.50935547 47.63885254 -21.33984375 48.65625 C-21.82831787 49.25244141 -22.31679199 49.84863281 -22.82006836 50.46289062 C-24.08249573 52.00675667 -24.08249573 52.00675667 -25 54 C-23.70231689 53.99111755 -22.40463379 53.98223511 -21.06762695 53.9730835 C-8.82633493 53.89192685 3.41490237 53.8320004 15.65640259 53.79275131 C21.94959748 53.77189447 28.24257483 53.7436109 34.53564453 53.69824219 C40.61107516 53.65471759 46.6862968 53.63084858 52.76187134 53.62049103 C55.0774769 53.61311162 57.39307128 53.59870135 59.70858765 53.57707977 C62.95701641 53.54795875 66.20458629 53.54404775 69.453125 53.54589844 C70.40619034 53.53151733 71.35925568 53.51713623 72.34120178 53.50231934 C78.32724884 53.53911736 83.05705285 54.46036753 88 58 C91.95855198 62.97356531 93.12236313 66.6662752 93.14717102 72.92558289 C93.15790398 74.78236916 93.15790398 74.78236916 93.16885376 76.67666626 C93.171694 78.0509641 93.17440574 79.42526222 93.17700195 80.79956055 C93.18326768 82.24513411 93.18991457 83.69070606 93.19691467 85.13627625 C93.21794739 89.88641236 93.22831742 94.63654876 93.23828125 99.38671875 C93.24232933 101.02316619 93.24644626 102.65961346 93.25063133 104.29606056 C93.26968254 111.98580957 93.28391281 119.67554898 93.2922433 127.36531705 C93.30201102 136.23488915 93.32831853 145.10421138 93.36874419 153.97369546 C93.39893336 160.83327432 93.41371489 167.69278169 93.41702431 174.55242568 C93.41937193 178.64734949 93.42829435 182.74200635 93.45348549 186.83685875 C93.47681997 190.69223728 93.48097811 194.54717412 93.47072411 198.40260506 C93.47022991 199.813475 93.47651612 201.22436709 93.49028015 202.63516998 C93.56284858 210.51787856 93.36131487 216.30358002 89 223 C85.79964381 226.05401783 82.40461622 227.85368581 78 228.3125 C77.01 228.1578125 77.01 228.1578125 76 228 C75.95875 228.845625 75.9175 229.69125 75.875 230.5625 C74.73752407 235.03115545 72.50863539 238.01724907 69 241 C63.62082466 242.78298084 57.72073145 242.22553779 52.125 242.25 C50.95324219 242.270625 49.78148437 242.29125 48.57421875 242.3125 C37.69560052 242.36189214 37.69560052 242.36189214 33 239 C29.88570124 235.12816911 28.99433667 232.97168335 28 228 C-25.46 228.495 -25.46 228.495 -80 229 C-81.32 231.64 -82.64 234.28 -84 237 C-86.54621062 240.1031942 -88.11279565 241.27517304 -92 242 C-96.1008754 242.25049308 -100.2047481 242.23121097 -104.3125 242.25 C-105.42818359 242.270625 -106.54386719 242.29125 -107.69335938 242.3125 C-113.88290793 242.34185174 -118.62065274 242.20111636 -124 239 C-126.72815104 235.98504333 -128.35721648 232.01739703 -129 228 C-129.86625 227.9175 -130.7325 227.835 -131.625 227.75 C-136.57576721 226.64982951 -139.82628264 224.61892049 -142.8125 220.5 C-144.82432788 216.26457289 -145.1273594 212.70225878 -145.14044189 208.02336121 C-145.14615204 206.79951218 -145.15186218 205.57566315 -145.15774536 204.31472778 C-145.15899062 202.96136485 -145.16011574 201.6080018 -145.16113281 200.25463867 C-145.165763 198.82699964 -145.17078793 197.39936183 -145.17617798 195.97172546 C-145.18928438 192.09558334 -145.19574346 188.21945853 -145.20018864 184.34329772 C-145.20312211 181.92035868 -145.20722743 179.49742435 -145.21169281 177.07448769 C-145.22536289 169.48992663 -145.23503203 161.90537635 -145.2388947 154.32080382 C-145.24337488 145.57239751 -145.26092291 136.82414748 -145.2898953 128.07578868 C-145.31152633 121.3087724 -145.32159973 114.54180005 -145.32293582 107.77474958 C-145.3239828 103.73525659 -145.32986776 99.69591061 -145.34775543 95.65645409 C-145.36426087 91.85528838 -145.36637975 88.05437981 -145.35761642 84.25319099 C-145.35684738 82.8612588 -145.36117133 81.46931264 -145.37107468 80.07741547 C-145.47228228 64.96155842 -145.47228228 64.96155842 -140.28125 59.0390625 C-139.6934375 58.57242188 -139.105625 58.10578125 -138.5 57.625 C-137.9121875 57.14289063 -137.324375 56.66078125 -136.71875 56.1640625 C-132.98701252 53.63665848 -129.50907262 53.878745 -125.1418457 53.88647461 C-124.44890411 53.88632858 -123.75596252 53.88618256 -123.04202271 53.8860321 C-120.75324363 53.88672837 -118.4645461 53.8945074 -116.17578125 53.90234375 C-114.58823186 53.90420894 -113.00068189 53.90563237 -111.41313171 53.90663147 C-107.2357728 53.91044866 -103.05844869 53.92027214 -98.88110352 53.93133545 C-94.61800609 53.94156672 -90.35490304 53.94613277 -86.09179688 53.95117188 C-77.72784862 53.96189511 -69.36392864 53.97896197 -61 54 C-62.2613068 52.26420097 -63.52282241 50.52855366 -64.78442383 48.79296875 C-65.4869075 47.82641357 -66.18939117 46.8598584 -66.91316223 45.86401367 C-69.81024107 41.88801059 -72.73006185 37.93127258 -75.6875 34 C-76.50057617 32.89591797 -76.50057617 32.89591797 -77.33007812 31.76953125 C-80.22712899 27.93242407 -82.60143657 25.16905104 -87 23 C-92.75379126 18.85191793 -92.75379126 18.85191793 -94 15 C-94.52055293 11.00909419 -94.16996586 9.30476637 -92.1875 5.75 C-90.00736386 3.00925742 -88.46430532 1.23582445 -84.9140625 0.6640625 C-80.88827601 0.59536307 -78.59468568 0.64571917 -75.0625 2.75 C-72.03087736 6.0572247 -71.14403797 8.08775949 -70.4375 12.5625 C-69.21244222 17.65911443 -66.07945749 20.89573284 -62.7109375 24.79296875 C-58.98172146 29.1224638 -55.64443777 33.74874768 -52.25048828 38.34179688 C-49.28424763 42.33929687 -46.22331579 46.20613378 -43 50 C-36.7616375 42.73598796 -30.6412168 35.40833634 -24.7980957 27.82080078 C-22.45978882 24.79585837 -20.0541244 21.97388304 -17.375 19.25 C-14.37756386 15.90441972 -14.51059124 12.65355341 -14.33203125 8.30859375 C-14 6 -14 6 -11.625 2.9375 C-7.74085194 0.07062881 -4.75206588 -0.46588881 0 0 Z M-114.53125 92.13671875 C-119.54411972 98.4961306 -121.11601271 104.75769061 -121.16113281 112.73706055 C-121.16609772 113.40593796 -121.17106262 114.07481537 -121.17617798 114.76396179 C-121.19075239 116.97155804 -121.19759501 119.17908234 -121.203125 121.38671875 C-121.20888198 122.92885844 -121.21463964 124.47099813 -121.22039795 126.01313782 C-121.23089567 129.24696179 -121.23674582 132.480761 -121.24023438 135.71459961 C-121.24570512 139.83903394 -121.26970765 143.96313582 -121.29820633 148.08746624 C-121.31692319 151.27469303 -121.32204318 154.46184134 -121.32357025 157.64911842 C-121.32657884 159.16842267 -121.33454607 160.68772613 -121.34775543 162.20697594 C-121.44051833 173.6997554 -120.64981072 182.75025641 -113.09765625 191.921875 C-103.90928123 201.02469718 -92.71920135 203.15246916 -80.28588867 203.14526367 C-79.02097847 203.15030159 -79.02097847 203.15030159 -77.73051453 203.15544128 C-74.95965069 203.16489257 -72.18884767 203.16689147 -69.41796875 203.16796875 C-67.47894771 203.17118542 -65.53992691 203.1745498 -63.60090637 203.17805481 C-59.54179319 203.18403155 -55.48270125 203.18589621 -51.42358398 203.18530273 C-46.24231749 203.18520121 -41.06118832 203.19885034 -35.87995434 203.21607494 C-31.87603641 203.22723617 -27.87215126 203.22922068 -23.86821938 203.22869301 C-21.95900309 203.22986703 -20.04978579 203.23425607 -18.14058495 203.24202538 C-1.67562864 203.30275557 11.41631788 202.87224101 24.01953125 191.13671875 C32.45478348 182.03596338 32.30917304 169.69313287 32.30078125 157.98046875 C32.30467954 156.63202282 32.30901649 155.28357809 32.31376648 153.93513489 C32.32118758 151.12037156 32.32096805 148.30573375 32.31567383 145.4909668 C32.30989206 141.91732763 32.32679851 138.34420894 32.3500185 134.77065563 C32.36488771 131.98819571 32.36560972 129.20585726 32.36250877 126.42336464 C32.36325886 124.47608268 32.37702415 122.52881932 32.39118958 120.58158875 C32.33285857 109.23778829 31.30380843 98.37601546 23 90 C12.48251535 80.33949558 2.18372586 78.84632325 -11.64990234 78.85473633 C-12.46260086 78.85137772 -13.27529938 78.8480191 -14.11262512 78.84455872 C-16.77041192 78.83514379 -19.42813511 78.83311054 -22.0859375 78.83203125 C-23.95244369 78.82881255 -25.81894964 78.82544803 -27.68545532 78.82194519 C-31.58718449 78.81597789 -35.48889159 78.81410286 -39.390625 78.81469727 C-44.36547318 78.81479885 -49.34017854 78.80113924 -54.3149929 78.78392506 C-58.16711057 78.77275358 -62.01919424 78.77077962 -65.87132645 78.77130699 C-67.70435707 78.77013491 -69.53738881 78.76575704 -71.37040329 78.75797462 C-88.1559566 78.6933661 -102.29592729 79.12225992 -114.53125 92.13671875 Z " fill="#060606" transform="translate(276,129)"/>
<path d="M0 0 C12.87 0 25.74 0 39 0 C42.9375 11.4375 42.9375 11.4375 44.17553711 15.04858398 C44.4978833 15.98001221 44.82022949 16.91144043 45.15234375 17.87109375 C45.6472229 19.30859985 45.6472229 19.30859985 46.15209961 20.77514648 C46.80334076 22.93965248 46.80334076 22.93965248 48 24 C50.64 16.08 53.28 8.16 56 0 C58.64 0 61.28 0 64 0 C63.40979439 4.97749362 62.36485996 9.42897726 60.78515625 14.2109375 C60.46145302 15.19134506 60.46145302 15.19134506 60.13121033 16.19155884 C59.67778745 17.55887781 59.22133446 18.92519543 58.76196289 20.29052734 C58.05844096 22.38709636 57.36958061 24.48811739 56.68164062 26.58984375 C56.23785008 27.92216542 55.79321892 29.25420743 55.34765625 30.5859375 C54.94554932 31.7929834 54.54344238 33.0000293 54.12915039 34.24365234 C53 37 53 37 51 38 C44.46666667 38.23333333 44.46666667 38.23333333 42 37 C41.15059905 34.90648743 40.39669906 32.77397351 39.6875 30.62890625 C39.47311279 29.99137924 39.25872559 29.35385223 39.0378418 28.69700623 C38.35148909 26.65445418 37.674847 24.60887994 37 22.5625 C36.3246499 20.51987818 35.64711357 18.47812764 34.9621582 16.43870544 C34.33991554 14.58555466 33.72639475 12.72948216 33.11328125 10.87329102 C32.19283718 7.92358648 32.19283718 7.92358648 30 6 C29.67 6.33 29.34 6.66 29 7 C25.7 7 22.4 7 19 7 C19 16.9 19 26.8 19 37 C14.01298701 38.24675325 14.01298701 38.24675325 11 37 C9.90088451 33.70265354 9.8860544 31.27041255 9.90234375 27.80078125 C9.90556641 26.59228516 9.90878906 25.38378906 9.91210938 24.13867188 C9.92048828 22.87603516 9.92886719 21.61339844 9.9375 20.3125 C9.94201172 19.03826172 9.94652344 17.76402344 9.95117188 16.45117188 C9.96297127 13.30073436 9.97943403 10.15039051 10 7 C6.7 7 3.4 7 0 7 C-1 3 -1 3 0 0 Z " fill="#666666" transform="translate(230,252)"/>
<path d="M0 0 C3.20802233 -0.11698258 6.41549025 -0.18750607 9.625 -0.25 C10.98044922 -0.30027344 10.98044922 -0.30027344 12.36328125 -0.3515625 C18.04289716 -0.4344766 21.64486359 -0.06011104 26 4 C27.31058589 6.9786043 27.36272163 9.78014799 27 13 C25.0625 16.4375 25.0625 16.4375 23 19 C23 21.51754509 23.84246858 22.92339589 24.9375 25.1875 C26.77396034 29.21859556 27.72393607 32.5829772 28 37 C27 38 27 38 24.125 38.375 C21 38 21 38 19.375 36.0625 C18.58638149 34.3060315 17.82466081 32.53563138 17.14453125 30.734375 C16.82871094 29.93515625 16.51289063 29.1359375 16.1875 28.3125 C15.91292969 27.54550781 15.63835937 26.77851563 15.35546875 25.98828125 C13.78672252 23.2558699 13.78672252 23.2558699 8 22 C8 26.95 8 31.9 8 37 C4.535 37.495 4.535 37.495 1 38 C0 37 0 37 -0.11352539 33.48999023 C-0.11336626 31.92951578 -0.10767142 30.36903607 -0.09765625 28.80859375 C-0.0962413 27.98875504 -0.09482635 27.16891632 -0.09336853 26.32423401 C-0.08775289 23.69528618 -0.07519779 21.06642227 -0.0625 18.4375 C-0.05748701 16.65950643 -0.05292376 14.88151154 -0.04882812 13.10351562 C-0.03777839 8.73564455 -0.02050331 4.36783652 0 0 Z M8 7 C8 9.64 8 12.28 8 15 C9.47906892 15.02689216 10.95827483 15.04634621 12.4375 15.0625 C13.67306641 15.07990234 13.67306641 15.07990234 14.93359375 15.09765625 C16.99163938 15.23267348 16.99163938 15.23267348 18 14 C18.04080783 12.00041636 18.04254356 9.99954746 18 8 C15.71294169 6.85647084 14.40735238 6.89665561 11.875 6.9375 C9.956875 6.9684375 9.956875 6.9684375 8 7 Z " fill="#5A5A5A" transform="translate(200,252)"/>
<path d="M0 0 C0.12418758 4.30491463 0.21461002 8.6088635 0.2746582 12.91503906 C0.29970529 14.37778907 0.33375392 15.84041512 0.37719727 17.30273438 C0.43829356 19.41307219 0.46630435 21.52174752 0.48828125 23.6328125 C0.51446533 24.90012207 0.54064941 26.16743164 0.56762695 27.47314453 C-0.18551858 32.1526888 -1.63961098 33.70908516 -5 37 C-10.26389073 38.75463024 -15.20449739 38.62026454 -20.4375 36.8125 C-23 35 -23 35 -24.5625 32.5625 C-25 30 -25 30 -23.625 27.6875 C-23.08875 27.130625 -22.5525 26.57375 -22 26 C-19.38419547 26.46710795 -18.1007036 26.91229041 -16.0625 28.6875 C-15.381875 29.120625 -14.70125 29.55375 -14 30 C-12.35 29.34 -10.7 28.68 -9 28 C-8.67 18.76 -8.34 9.52 -8 0 C-5.13822943 -1.43088528 -3.06624227 -0.59991697 0 0 Z " fill="#636363" transform="translate(191,252)"/>
<path d="M0 0 C9.24 0 18.48 0 28 0 C28 1.98 28 3.96 28 6 C24.7 6 21.4 6 18 6 C18 15.9 18 25.8 18 36 C13.01298701 37.24675325 13.01298701 37.24675325 10 36 C8.71041949 32.13125846 8.85207829 28.46762806 8.875 24.4375 C8.87693359 23.63135254 8.87886719 22.82520508 8.88085938 21.99462891 C8.9222819 16.27256705 9.26714652 10.67961448 10 5 C6.7 5 3.4 5 0 5 C0 3.35 0 1.7 0 0 Z " fill="#646464" transform="translate(231,253)"/>
<path d="M0 0 C1.90676065 1.20750138 3.69225974 2.44877273 5.43359375 3.8828125 C5.10359375 4.5428125 4.77359375 5.2028125 4.43359375 5.8828125 C5.38234375 6.1715625 6.33109375 6.4603125 7.30859375 6.7578125 C10.43359375 7.8828125 10.43359375 7.8828125 12.43359375 9.8828125 C13.10398481 16.8101868 13.10398481 16.8101868 10.87109375 20.3828125 C7.48471046 22.46674068 5.33974057 22.44083347 1.43359375 21.8828125 C-2.33321408 19.23586646 -3.37780122 16.24103096 -4.56640625 11.8828125 C-5.80390625 11.8828125 -7.04140625 11.8828125 -8.31640625 11.8828125 C-11.06640625 11.8828125 -13.81640625 11.8828125 -16.56640625 11.8828125 C-16.31640625 10.0078125 -16.31640625 10.0078125 -15.56640625 7.8828125 C-12.38566431 5.52670736 -9.42204825 5.56806621 -5.56640625 5.8828125 C-3.87942543 6.49626007 -2.20674818 7.15377164 -0.56640625 7.8828125 C0.09359375 7.8828125 0.75359375 7.8828125 1.43359375 7.8828125 C-1.04087856 5.17267617 -2.90228058 4.04486219 -6.65234375 3.6796875 C-11.71172726 3.57608238 -14.219718 4.15060846 -18.56640625 6.8828125 C-20.87890625 6.0703125 -20.87890625 6.0703125 -22.56640625 4.8828125 C-16.49782408 -1.51380114 -8.50070272 -3.70045811 0 0 Z " fill="#4DA23F" transform="translate(344.56640625,214.1171875)"/>
<path d="M0 0 C3.20802233 -0.11698258 6.41549025 -0.18750607 9.625 -0.25 C10.98044922 -0.30027344 10.98044922 -0.30027344 12.36328125 -0.3515625 C18.04289716 -0.4344766 21.64486359 -0.06011104 26 4 C27.31311045 6.98434192 27.34047373 9.77387185 27 13 C24.36263736 18.47008547 24.36263736 18.47008547 20.75 19.875 C20.1725 19.91625 19.595 19.9575 19 20 C19 19.01 19 18.02 19 17 C19.66 17 20.32 17 21 17 C20.505 16.62875 20.01 16.2575 19.5 15.875 C17.40244486 13.25305607 17.78256165 11.26157528 18 8 C14.7 7.67 11.4 7.34 8 7 C8 9.64 8 12.28 8 15 C10.97 15 13.94 15 17 15 C17 15.33 17 15.66 17 16 C13.7 16 10.4 16 7 16 C7 12.7 7 9.4 7 6 C10.3 5.67 13.6 5.34 17 5 C17 4.01 17 3.02 17 2 C11.39 1.67 5.78 1.34 0 1 C0 0.67 0 0.34 0 0 Z " fill="#797979" transform="translate(200,252)"/>
<path d="M0 0 C2.23216738 1.20909067 4.16954694 2.592152 6.15625 4.16796875 C5.82625 5.15796875 5.49625 6.14796875 5.15625 7.16796875 C2.25100057 6.56137821 0.12446157 5.63045477 -2.40625 4.10546875 C-8.05300659 1.22425589 -14.06422473 1.16223067 -20.1484375 2.78125 C-22.0802318 3.49200451 -23.96544288 4.32596901 -25.84375 5.16796875 C-26.83375 5.55984375 -27.82375 5.95171875 -28.84375 6.35546875 C-29.50375 6.62359375 -30.16375 6.89171875 -30.84375 7.16796875 C-30.84375 5.84796875 -30.84375 4.52796875 -30.84375 3.16796875 C-29.19921875 1.71875 -29.19921875 1.71875 -27.03125 0.48046875 C-26.32355469 0.06410156 -25.61585938 -0.35226563 -24.88671875 -0.78125 C-16.93358778 -4.87186612 -7.90031965 -3.43663905 0 0 Z " fill="#EDEDED" transform="translate(348.84375,207.83203125)"/>
<path d="M0 0 C2.87770097 2.45596893 3.96687126 4.90889595 5.25 8.4375 C5.60578125 9.38496094 5.9615625 10.33242188 6.328125 11.30859375 C7.01466386 14.05874071 6.96622898 15.38003295 6 18 C3.1875 18.3125 3.1875 18.3125 0 18 C-3.24377122 14.29283289 -3.96416794 9.70108397 -5 5 C-3.35 4.67 -1.7 4.34 0 4 C0 2.68 0 1.36 0 0 Z " fill="#6F6F6F" transform="translate(221,272)"/>
<path d="M0 0 C1.90676065 1.20750138 3.69225974 2.44877273 5.43359375 3.8828125 C4.44359375 5.3678125 4.44359375 5.3678125 3.43359375 6.8828125 C2.67046875 6.5734375 1.90734375 6.2640625 1.12109375 5.9453125 C-3.94654283 3.94182827 -8.14385682 3.28987059 -13.56640625 3.8828125 C-15.24934545 4.85517737 -16.92084059 5.84845694 -18.56640625 6.8828125 C-20.87890625 6.0703125 -20.87890625 6.0703125 -22.56640625 4.8828125 C-16.49782408 -1.51380114 -8.50070272 -3.70045811 0 0 Z " fill="#F2F4F1" transform="translate(344.56640625,214.1171875)"/>
<path d="M0 0 C0.53625 0.33 1.0725 0.66 1.625 1 C1.295 2.65 0.965 4.3 0.625 6 C-0.035 5.67 -0.695 5.34 -1.375 5 C-4.05080435 4.95684187 -6.70163282 4.9546032 -9.375 5 C-10.695 5 -12.015 5 -13.375 5 C-13.125 3.125 -13.125 3.125 -12.375 1 C-8.60449602 -1.79296591 -4.2364347 -1.78376198 0 0 Z " fill="#E6E9E6" transform="translate(341.375,221)"/>
<path d="M0 0 C3.79450934 0.39253545 5.51015791 2.24338912 8 5 C6.02 5.99 6.02 5.99 4 7 C4.33 7.99 4.66 8.98 5 10 C2.6875 10.25 2.6875 10.25 0 10 C-1.9375 8.3125 -1.9375 8.3125 -3 6 C-2.33228817 3.60736593 -1.77902615 1.77902615 0 0 Z " fill="#616161" transform="translate(169,278)"/>
<path d="M0 0 C0.66 0.33 1.32 0.66 2 1 C2.48192771 8.22891566 2.48192771 8.22891566 0.4375 11.5 C-2.82028019 13.50478781 -5.24782833 13.28862859 -9 13 C-8.34 12.01 -7.68 11.02 -7 10 C-6.34 10 -5.68 10 -5 10 C-4.9175 9.38125 -4.835 8.7625 -4.75 8.125 C-4 6 -4 6 -1.9375 4.75 C-1.298125 4.5025 -0.65875 4.255 0 4 C0 2.68 0 1.36 0 0 Z " fill="#4B9D3D" transform="translate(355,223)"/>
<path d="M0 0 C10.23 0 20.46 0 31 0 C31.495 2.97 31.495 2.97 32 6 C31.01 6 30.02 6 29 6 C29 4.35 29 2.7 29 1 C19.76 1 10.52 1 1 1 C1 2.65 1 4.3 1 6 C4.3 6 7.6 6 11 6 C10.67 6.99 10.34 7.98 10 9 C10 8.34 10 7.68 10 7 C6.7 7 3.4 7 0 7 C-1 3 -1 3 0 0 Z " fill="#9B9B9B" transform="translate(230,252)"/>
<path d="M0 0 C1.45880109 0.14107747 2.91703551 0.28802415 4.375 0.4375 C5.59316406 0.55931641 5.59316406 0.55931641 6.8359375 0.68359375 C9 1 9 1 11 2 C10.34 3.32 9.68 4.64 9 6 C5.37 5.34 1.74 4.68 -2 4 C-1.34 3.67 -0.68 3.34 0 3 C0 2.01 0 1.02 0 0 Z " fill="#18191B" transform="translate(336,209)"/>
<path d="M0 0 C2.125 0.9375 2.125 0.9375 4 2 C4 3.32 4 4.64 4 6 C2.34385343 6.38218767 0.67542976 6.71395102 -1 7 C-2 6 -2 6 -2.0625 3.4375 C-2.041875 2.633125 -2.02125 1.82875 -2 1 C-1.34 0.67 -0.68 0.34 0 0 Z " fill="#E8E9E7" transform="translate(335,229)"/>
<path d="M0 0 C0.66 0 1.32 0 2 0 C0.60667426 3.36720387 -0.9789286 4.9859524 -4 7 C-5.5 5.625 -5.5 5.625 -7 4 C-7 3.34 -7 2.68 -7 2 C-6.401875 2.226875 -5.80375 2.45375 -5.1875 2.6875 C-4.465625 2.790625 -3.74375 2.89375 -3 3 C-1.35405861 1.60411246 -1.35405861 1.60411246 0 0 Z " fill="#D2F7CA" transform="translate(352,225)"/>
<path d="M0 0 C6.15234375 -0.09765625 6.15234375 -0.09765625 8 0 C9 1 9 1 9.0625 3.5625 C9.041875 4.366875 9.02125 5.17125 9 6 C8.67 5.34 8.34 4.68 8 4 C6.02 4.99 6.02 4.99 4 6 C4.66 4.68 5.32 3.36 6 2 C3.03 1.505 3.03 1.505 0 1 C0 0.67 0 0.34 0 0 Z " fill="#55994C" transform="translate(346,221)"/>
<path d="M0 0 C1.9375 0.25 1.9375 0.25 4 1 C4.66 1.99 5.32 2.98 6 4 C5.2575 3.773125 4.515 3.54625 3.75 3.3125 C0.94085007 2.70523302 0.94085007 2.70523302 -1.3125 4.4375 C-1.869375 4.953125 -2.42625 5.46875 -3 6 C-1.125 1.125 -1.125 1.125 0 0 Z " fill="#909090" transform="translate(169,278)"/>
<path d="M0 0 C1.32 0.33 2.64 0.66 4 1 C4 1.66 4 2.32 4 3 C2.35 3.66 0.7 4.32 -1 5 C-1.66 4.01 -2.32 3.02 -3 2 C-2.01 2 -1.02 2 0 2 C0 1.34 0 0.68 0 0 Z " fill="#55A248" transform="translate(346,230)"/>
</svg>
